<svg width="28" height="28" viewBox="0 0 28 28" fill="none" xmlns="http://www.w3.org/2000/svg">
<path fill-rule="evenodd" clip-rule="evenodd" d="M27 11C26.448 11 26 10.552 26 10V5C26 3.343 24.657 2 23 2L5 2C3.343 2 2 3.343 2 5V10C2 10.552 1.552 11 1 11C0.448 11 0 10.552 0 10V5C0 2.239 2.239 0 5 0L23 0C25.761 0 28 2.239 28 5V10C28 10.552 27.552 11 27 11Z" fill="white"/>
<path fill-rule="evenodd" clip-rule="evenodd" d="M13.2931 6.29303C13.6831 5.90203 14.317 5.90203 14.707 6.29303L20.707 12.293C21.098 12.683 21.098 13.317 20.707 13.707C20.317 14.098 19.6831 14.098 19.2931 13.707L15 9.414L15 27C15 27.552 14.552 28 14 28C13.448 28 13 27.552 13 27L13 9.414L8.70699 13.707C8.31699 14.098 7.68305 14.098 7.29305 13.707C6.90205 13.317 6.90205 12.683 7.29305 12.293L13.2931 6.29303Z" fill="white"/>
</svg>
