<svg width="218" height="136" viewBox="0 0 218 136" fill="none" xmlns="http://www.w3.org/2000/svg">
<g clip-path="url(#clip0_3_472)">
<g clip-path="url(#clip1_3_472)">
<g clip-path="url(#clip2_3_472)">
<g clip-path="url(#clip3_3_472)">
<g clip-path="url(#clip4_3_472)">
<g clip-path="url(#clip5_3_472)">
<g clip-path="url(#clip6_3_472)">
<g clip-path="url(#clip7_3_472)">
<g clip-path="url(#clip8_3_472)">
<g clip-path="url(#clip9_3_472)">
<path d="M69.2215 85.9272H41.6692V80.8999L45.3642 80.1056V56.0247L41.6692 55.2404V50.1829H45.3642H53.9693H58.4777V55.2404L53.9693 56.0247V79.3213H62.4539L62.6547 74.3442H69.2215V85.9272ZM88.4096 86.44C85.9463 86.44 83.6804 85.9875 81.6119 85.0826C79.5435 84.171 77.7495 82.8974 76.23 81.2619C74.7105 79.6263 73.5357 77.7092 72.7056 75.5106C71.8823 73.3053 71.4706 70.9123 71.4706 68.3316V67.7584C71.4706 65.1912 71.8823 62.8115 72.7056 60.6196C73.5357 58.4277 74.7071 56.514 76.22 54.8784C77.7261 53.2362 79.51 51.9592 81.5718 51.0476C83.6335 50.1293 85.8961 49.6701 88.3594 49.6701C90.7826 49.6701 93.0318 50.1293 95.1069 51.0476C97.182 51.9592 98.9994 53.2362 100.559 54.8784C102.119 56.514 103.33 58.4277 104.194 60.6196C105.064 62.8115 105.499 65.1912 105.499 67.7584V68.3316C105.499 70.9123 105.064 73.3053 104.194 75.5106C103.33 77.7092 102.122 79.6263 100.569 81.2619C99.0162 82.8974 97.2021 84.171 95.127 85.0826C93.0519 85.9875 90.8128 86.44 88.4096 86.44ZM88.4096 79.9145C90.2103 79.9145 91.7466 79.4319 93.0184 78.4667C94.297 77.5014 95.2709 76.1507 95.9403 74.4146C96.6097 72.6785 96.9444 70.6508 96.9444 68.3316V67.7082C96.9444 65.4358 96.603 63.4383 95.9202 61.7156C95.2441 59.9862 94.2702 58.6389 92.9983 57.6736C91.7198 56.7084 90.1735 56.2257 88.3594 56.2257C86.4517 56.2257 84.8886 56.6983 83.6703 57.6435C82.452 58.5953 81.5483 59.9292 80.9593 61.6452C80.3702 63.3679 80.0757 65.3889 80.0757 67.7082V68.3316C80.0757 70.6508 80.3736 72.6819 80.9693 74.4247C81.5651 76.1675 82.4821 77.5182 83.7205 78.4767C84.9522 79.4353 86.5152 79.9145 88.4096 79.9145ZM124.738 86.44C121.043 86.44 117.917 85.7194 115.359 84.2783C112.802 82.8438 110.854 80.8463 109.516 78.2857C108.177 75.7184 107.507 72.7489 107.507 69.3772V67.7584C107.507 64.2125 108.17 61.0788 109.496 58.3573C110.814 55.6426 112.732 53.5177 115.249 51.9827C117.766 50.441 120.805 49.6701 124.366 49.6701C126.803 49.6701 129.246 50.0421 131.696 50.7862C134.153 51.5302 136.311 52.7033 138.172 54.3053V62.6808H132.047L130.742 58.1361C130.187 57.5664 129.4 57.0938 128.382 56.7184C127.358 56.3431 126.21 56.1554 124.938 56.1554C122.977 56.1554 121.334 56.6413 120.008 57.6133C118.683 58.5852 117.689 59.9393 117.026 61.6754C116.364 63.4115 116.032 65.4224 116.032 67.7082V69.3772C116.032 71.5423 116.38 73.4192 117.076 75.0079C117.773 76.5898 118.79 77.8165 120.129 78.6879C121.468 79.5526 123.118 79.9849 125.079 79.9849C126.11 79.9849 127.131 79.8777 128.142 79.6632C129.159 79.4554 129.952 79.2208 130.521 78.9593V74.3442L126.505 73.8516V67.9093H139.156V82.7399C137.229 83.98 135.05 84.9083 132.62 85.525C130.19 86.135 127.562 86.44 124.738 86.44ZM158.977 86.44C156.514 86.44 154.248 85.9875 152.179 85.0826C150.111 84.171 148.317 82.8974 146.798 81.2619C145.278 79.6263 144.107 77.7092 143.283 75.5106C142.453 73.3053 142.038 70.9123 142.038 68.3316V67.7584C142.038 65.1912 142.453 62.8115 143.283 60.6196C144.107 58.4277 145.275 56.514 146.787 54.8784C148.3 53.2362 150.084 51.9592 152.139 51.0476C154.201 50.1293 156.467 49.6701 158.937 49.6701C161.354 49.6701 163.599 50.1293 165.674 51.0476C167.75 51.9592 169.567 53.2362 171.127 54.8784C172.686 56.514 173.901 58.4277 174.772 60.6196C175.635 62.8115 176.067 65.1912 176.067 67.7584V68.3316C176.067 70.9123 175.635 73.3053 174.772 75.5106C173.901 77.7092 172.69 79.6263 171.137 81.2619C169.584 82.8974 167.77 84.171 165.695 85.0826C163.619 85.9875 161.38 86.44 158.977 86.44ZM158.977 79.9145C160.778 79.9145 162.314 79.4319 163.586 78.4667C164.864 77.5014 165.838 76.1507 166.508 74.4146C167.177 72.6785 167.512 70.6508 167.512 68.3316V67.7082C167.512 65.4358 167.174 63.4383 166.498 61.7156C165.815 59.9862 164.838 58.6389 163.566 57.6736C162.294 56.7084 160.751 56.2257 158.937 56.2257C157.023 56.2257 155.456 56.6983 154.238 57.6435C153.02 58.5953 152.116 59.9292 151.527 61.6452C150.938 63.3679 150.643 65.3889 150.643 67.7082V68.3316C150.643 70.6508 150.944 72.6819 151.547 74.4247C152.143 76.1675 153.056 77.5182 154.288 78.4767C155.52 79.4353 157.083 79.9145 158.977 79.9145Z" fill="white"/>
</g>
</g>
</g>
</g>
</g>
</g>
</g>
<path d="M105.723 46.3666V14.7067H212.274V121.403H105.723V89.7435H109.035V118.088H208.963V18.0225H109.035V46.3666H105.723Z" fill="white"/>
</g>
</g>
</g>
<defs>
<clipPath id="clip0_3_472">
<rect width="218" height="136" fill="white"/>
</clipPath>
<clipPath id="clip1_3_472">
<rect width="218" height="136" fill="white" transform="translate(-0.13208 0.0550537)"/>
</clipPath>
<clipPath id="clip2_3_472">
<rect width="217.478" height="136.11" fill="white" transform="translate(0.128662)"/>
</clipPath>
<clipPath id="clip3_3_472">
<rect width="134.402" height="36.7699" fill="white" transform="translate(41.667 49.6701)"/>
</clipPath>
<clipPath id="clip4_3_472">
<rect width="134.402" height="36.7699" fill="white" transform="translate(41.667 49.6701)"/>
</clipPath>
<clipPath id="clip5_3_472">
<rect width="134.402" height="36.7699" fill="white" transform="translate(41.667 49.6701)"/>
</clipPath>
<clipPath id="clip6_3_472">
<rect width="134.402" height="36.7699" fill="white" transform="translate(41.667 49.6701)"/>
</clipPath>
<clipPath id="clip7_3_472">
<rect width="134.402" height="36.7699" fill="white" transform="translate(41.667 49.6701)"/>
</clipPath>
<clipPath id="clip8_3_472">
<rect width="134.402" height="36.7699" fill="white" transform="translate(41.667 49.6701)"/>
</clipPath>
<clipPath id="clip9_3_472">
<rect width="134.402" height="36.7699" fill="white" transform="translate(41.667 49.6701)"/>
</clipPath>
</defs>
</svg>
