<svg width="22" height="22" viewBox="0 0 22 22" fill="none" xmlns="http://www.w3.org/2000/svg">
<path d="M2.75 2.75C1.23122 2.75 0 3.98122 0 5.5V16.5C0 18.0188 1.23122 19.25 2.75 19.25H19.25C20.7688 19.25 22 18.0188 22 16.5V5.5C22 3.98122 20.7688 2.75 19.25 2.75H2.75ZM1.83333 5.99059L9.47457 11.0847C10.3983 11.7006 11.6017 11.7006 12.5254 11.0847L20.1667 5.99059V16.5C20.1667 17.0063 19.7563 17.4167 19.25 17.4167H2.75C2.24374 17.4167 1.83333 17.0063 1.83333 16.5V5.99059ZM18.9725 4.58333L11.5085 9.55932C11.2006 9.76459 10.7994 9.76459 10.4915 9.55932L3.02754 4.58333H18.9725Z" fill="white"/>
</svg>
